<?xml version="1.0" encoding="utf-8"?>
<!-- Generator: Adobe Illustrator 22.1.0, SVG Export Plug-In . SVG Version: 6.00 Build 0)  -->
<svg version="1.1" id="Layer_1" xmlns="http://www.w3.org/2000/svg" xmlns:xlink="http://www.w3.org/1999/xlink" x="0px" y="0px"
	 viewBox="0 0 595.3 594.7" style="enable-background:new 0 0 595.3 594.7;" xml:space="preserve">
<style type="text/css">
	.st0{fill:#00A0FF;}
	.st1{fill:#FFFFFF;}
</style>
<path class="st0" d="M0,0h595.3v594.7H0V0z"/>
<path class="st1" d="M253.5,136.2c-0.2,0.9-0.3,1.7-0.4,2.6c0,0.6,0,1.1,0.1,1.7c0.5,3.8,3,7.1,5.8,9.6c0.5,0.4,1,0.8,1.5,1.2
	c0.6,0.5,1.3,1,2,1.4c0.8,0.6,1.7,1.1,2.5,1.6c1.2,0.7,2.4,1.3,3.7,1.9c3.3,1.5,6.6,2.7,10.1,3.6c4.3,1.1,8.6,1.9,13,2.3
	c6.9,0.6,13.9,0.5,20.8-0.6c5.4-0.8,10.7-2.1,15.7-4.1c1.5-0.6,2.9-1.2,4.4-2c1.1-0.5,2.1-1.1,3.1-1.8c0.8-0.5,1.6-1.1,2.4-1.6
	c0.6-0.5,1.2-0.9,1.8-1.5c3-2.6,5.8-6,6.4-10.1c0.1-0.6,0.1-1.1,0.1-1.7c0-0.9-0.1-1.8-0.4-2.6l-2.7-9.9l10.4,4.8
	c1.3,0.6,1.3,0.6,2.6,1.2c2.1,1.1,4.3,2.2,6.3,3.4c4.6,2.6,9.1,5.5,13.4,8.5c4.3,3.1,8.5,6.5,12.5,10.1c3.3,3,6.5,6.1,9.5,9.3
	c21.7,23.1,36.4,52.4,43.6,83.3c3.6,15.4,5.3,31.1,5.4,46.9c0,17.4-2.2,34.9-6.6,51.7c-8.5,32.5-25.4,63.2-50.2,86.1
	c-3.5,3.2-7.1,6.3-10.9,9.1c-4.5,3.4-9.1,6.6-13.9,9.4c-5.6,3.3-11.4,6.2-17.4,8.7c-7.4,3.1-15.2,5.4-23,7.1
	c-9.6,2-19.4,2.8-29.1,2.5c-11.9-0.4-23.7-2.4-35-6.1c-14.2-4.6-27.5-11.6-39.4-20.5c-6.9-5.1-13.3-10.8-19.2-17
	c-4.7-4.9-9.1-10.1-13.1-15.5c-3.5-4.8-6.8-9.7-9.9-14.8c-2.6-4.3-5-8.7-7.2-13.3c-16.3-33.3-22.5-71.3-18.8-108.1
	c1-9.9,2.7-19.8,5.1-29.5c4-15.9,10-31.4,18-45.8c12.1-21.7,28.7-41.1,49.2-55.3c4.4-3,8.9-5.8,13.5-8.3c2.1-1.1,4.3-2.2,6.4-3.2
	l10.4-4.8C255.2,129.6,254.3,132.9,253.5,136.2L253.5,136.2z M243.7,142.6c-2,1.1-3.9,2.2-5.8,3.3c-3.9,2.3-7.6,4.9-11.2,7.6
	c-19.3,14.5-34.6,33.9-45.4,55.5c-6.6,13.2-11.5,27.2-14.8,41.6c-2.2,9.9-3.7,19.9-4.3,30c-2.2,33.4,4,67.4,18.9,97.5
	c2.1,4.3,4.4,8.4,6.9,12.5c2.9,4.8,6,9.4,9.4,13.9c3.8,5.1,8,10,12.4,14.6c5,5.1,10.3,9.9,15.9,14.2c11,8.4,23.3,15.2,36.5,19.6
	c10.7,3.6,21.9,5.7,33.1,6.1c9,0.3,18.1-0.4,27-2.1c7.3-1.4,14.5-3.6,21.4-6.4c5.6-2.3,11-4.9,16.3-8c4.5-2.6,8.9-5.6,13.1-8.7
	c3.5-2.7,6.9-5.5,10.2-8.5c24.3-22.2,40.7-52.3,48.7-84.1c3.9-15.5,5.8-31.5,5.8-47.4c0-15-1.7-30.1-5.1-44.7
	c-6.7-28.8-20.3-56.2-40.4-77.9c-2.8-3.1-5.8-6-8.9-8.8c-3.4-3.1-6.9-6-10.5-8.7c-3.6-2.7-7.3-5.2-11.2-7.6
	c-1.9-1.2-3.9-2.2-5.8-3.3l-0.2-0.1c-0.1,0.4-0.2,0.8-0.2,1.2c-0.1,0.5-0.2,0.9-0.4,1.4c-0.4,1.2-0.8,2.3-1.4,3.5
	c-2.9,6-8.2,10.5-13.8,13.8c-0.9,0.6-1.9,1.1-2.9,1.6c-1.2,0.6-2.4,1.2-3.6,1.7c-4,1.7-8.3,3.1-12.5,4.1c-5.3,1.2-10.8,2-16.2,2.2
	c-6.6,0.3-13.1,0-19.6-1c-5.3-0.8-10.5-2.1-15.6-4c-1.6-0.6-3.2-1.3-4.8-2c-1.3-0.6-2.7-1.3-3.9-2c-0.9-0.5-1.8-1.1-2.7-1.7
	c-5.5-3.6-10.6-8.5-12.9-14.8c-0.4-1.2-0.8-2.4-1-3.6l-0.1-0.3C243.9,142.6,243.8,142.6,243.7,142.6L243.7,142.6z M245.1,157
	c2.2,4.9,6.2,8.8,10.6,11.8c0.9,0.6,1.7,1.2,2.6,1.7c1.2,0.7,2.5,1.4,3.7,2c1.5,0.7,3,1.4,4.6,2c4.1,1.6,8.3,2.9,12.5,3.8
	c5.5,1.2,11.1,1.9,16.8,2.1c6.2,0.2,12.5-0.1,18.6-1c4.9-0.7,9.7-1.8,14.3-3.4c2-0.7,3.9-1.4,5.8-2.2c1.4-0.6,2.7-1.2,4-1.9
	c1.1-0.6,2.2-1.2,3.2-1.8c5.1-3.2,10-7.4,12.4-13l2-4.8c3.3,2.1,6.7,4.2,9.9,6.5c5.1,3.6,10,7.6,14.5,11.9
	c21.9,20.7,36.7,48.1,44.1,77.2c3.7,14.5,5.6,29.5,5.7,44.5c0.1,14.2-1.4,28.4-4.5,42.3c-6.9,30.6-21.9,59.8-44.8,81.6
	c-3.1,2.9-6.2,5.7-9.6,8.3c-3.9,3.1-8,6-12.3,8.6c-4.9,3-10.1,5.7-15.4,8c-6.6,2.8-13.4,5.1-20.4,6.6c-8.5,1.9-17.2,2.8-25.8,2.6
	c-10.6-0.2-21.1-1.9-31.2-5c-12.7-3.9-24.6-10.1-35.3-17.9c-6.1-4.5-11.9-9.5-17.2-15c-4.2-4.3-8.1-9-11.8-13.8
	c-3.2-4.2-6.2-8.6-8.9-13.1c-2.3-3.8-4.5-7.8-6.5-11.8c-14-28.2-19.9-60-18.1-91.4c0.5-8.2,1.5-16.3,3.1-24.3
	c2.4-12.4,6.1-24.6,11.1-36.2c8.9-20.6,22-39.6,38.8-54.5c5-4.4,10.3-8.4,15.9-12l5.1-3.2C243.8,153.8,244.5,155.4,245.1,157
	L245.1,157z M384.7,400.9l-51.8-51.8H267l-52,52c0.8,1,1.7,1.9,2.5,2.8c4.1,4.5,8.6,8.8,13.3,12.7c9.8,8.1,20.8,14.6,32.7,19.1
	c9.4,3.5,19.2,5.7,29.2,6.4c8.3,0.6,16.7,0.1,24.8-1.3c6.5-1.2,13-2.9,19.2-5.3c5-1.9,9.9-4.2,14.6-6.9c4.1-2.3,8-4.8,11.8-7.6
	c2.8-2,5.4-4.2,8-6.4C376,410.3,380.5,405.8,384.7,400.9z M209.7,394.4l50.7-50.7l-23-46h-60.2c0.6,28.8,8.1,57.5,22.8,82.3
	c2.4,4.1,5,8.1,7.8,11.9C208.4,392.7,209,393.6,209.7,394.4L209.7,394.4z M422.5,297.3h-60l-23.1,46.2l50.8,50.8
	c10.1-13.3,17.9-28.4,23.2-44.1c1.4-4.2,2.7-8.5,3.8-12.9C420.5,324.2,422.2,310.7,422.5,297.3L422.5,297.3z M268.4,246.9L245,293.7
	l23.4,46.8h62.9l23.4-46.8l-23.4-46.8C310.3,246.9,289.3,246.9,268.4,246.9L268.4,246.9z M210,192.6c-8.7,11.3-15.7,23.9-20.9,37.1
	c-4.2,10.5-7.2,21.4-9.2,32.5c-1.5,8.2-2.3,16.4-2.6,24.7c0,0.7,0,1.4-0.1,2.1h60.6l22.9-45.8C260.6,243.3,210,192.6,210,192.6z
	 M389.7,192.6L339,243.3l22.7,45.4h60.7c-0.3-10.6-1.5-21.1-3.7-31.5c-0.9-4.1-1.9-8.2-3-12.3C410.4,226.2,401.6,208.2,389.7,192.6
	L389.7,192.6z M384.2,186c-3.3-3.8-6.8-7.4-10.6-10.8c-4.1-3.7-8.4-7.1-12.9-10.3l-0.8-0.5c0,0,0,0,0,0.1c-0.6,0.9-1.2,1.8-1.9,2.7
	c-4.7,5.9-11.1,10.2-17.8,13.4c-1.4,0.7-2.8,1.3-4.2,1.8c-1.8,0.7-3.7,1.4-5.5,2c-10.3,3.3-21.2,4.7-32.1,4.5
	c-11.1-0.1-22.2-1.9-32.7-5.7c-1.8-0.7-3.6-1.4-5.3-2.2c-4.1-1.9-8-4.1-11.5-6.8c-2.7-2.1-5.2-4.4-7.4-7.1c-0.7-0.9-1.3-1.7-1.9-2.7
	l0-0.1c-4.2,2.9-8.2,6-12,9.4c-4.4,3.8-8.4,8-12.2,12.3l52.3,52.3h64.1L384.2,186L384.2,186z"/>
</svg>
